<?xml version="1.0" encoding="utf-8"?>
<!-- Generator: Adobe Illustrator 25.3.1, SVG Export Plug-In . SVG Version: 6.00 Build 0)  -->
<svg version="1.1" id="Layer_1" xmlns="http://www.w3.org/2000/svg" xmlns:xlink="http://www.w3.org/1999/xlink" x="0px" y="0px"
	 viewBox="0 0 580.9 354.6" style="enable-background:new 0 0 580.9 354.6;" xml:space="preserve">
<style type="text/css">
	.st0{fill:none;}
	.st1{fill:#EB4D32;}
	.st2{fill:#EC5137;}
	.st3{fill:#EC4E34;}
	.st4{fill:#EB4C31;}
</style>
<path class="st0" d="M580.9,354.6H0V0h580.9V354.6z M430.8,148.8c-5.1,1.5-8.1,2.8-11.3,3.3c-13.5,1.9-17.4,9-17.1,22.8
	c1,41.6,0.4,83.2,0.4,124.8v15.6c4.1-1.3,6.5-1.8,8.6-2.9c12.2-6.4,24.5-7.2,38.4-6c23.5,2.1,47.6,3.2,70.9,0.1
	c31-4,47-26.5,48.1-57.3c0.9-23.3-8.5-40.4-27.2-53.3c19.8-19.2,25.6-37,20-58.8c-5.5-21.2-19.8-33.3-40.4-38.2
	c-28.6-6.7-56.9-0.9-85.1,2.3v27.6c2.7-0.4,4.7-0.8,6.8-0.9c21.6-1.1,43.3-4,64.7-2.8c21.2,1.1,32.2,19.4,25.7,38.1
	c-5,14.5-17.4,18.4-30.9,18.8c-18.6,0.6-37.3,0.2-56.4,0.2v27.6c9.1,0,17.4-0.2,25.7,0c12.9,0.4,26-0.1,38.6,1.9
	c20.3,3.3,30.6,15.3,30.8,33.2s-9.8,30.3-29.6,34.6c-27.1,5.9-53.6-0.4-80.9-3.6L430.8,148.8z M124.5,101.4v85.9H36.2v-85.7H3.5
	v206.9h33.6v-89.8h88.1v89.7h33.3V101.4H124.5z M335.4,101.4v12.7c0,32.9,1.3,65.8-0.5,98.5c-0.8,14.7-4.9,30.9-12.6,43.3
	c-13.7,22.7-43.2,30-65.9,16.3c-7.1-4.3-13-10.4-17.1-17.7c-6.9-12-10.7-27.2-11.4-41.2c-1.6-33.6-0.4-67.3-0.4-101
	c0-3.6-0.4-7.1-0.7-10.8h-32.1c0,44.5-2.6,88.3,0.7,131.6c3.7,49.3,40.8,79.6,88.3,78.3c47-1.4,81.6-33.5,84.1-81.9
	c2.2-41.5,0.9-83.1,1-124.7c0-1.1-0.9-2.2-1.5-3.6L335.4,101.4z M434.6,68.9H545V48.1H434.6V68.9z"/>
<path class="st1" d="M430.8,148.8v127.4c27.3,3.1,53.9,9.5,80.9,3.6c19.7-4.3,29.8-16.7,29.6-34.6s-10.5-30-30.8-33.2
	c-12.6-2-25.7-1.6-38.6-1.9c-8.3-0.2-16.6,0-25.7,0v-27.7c19,0,37.7,0.5,56.4-0.2c13.4-0.5,25.9-4.4,30.9-18.8
	c6.5-18.7-4.6-37-25.7-38.1c-21.5-1.2-43.1,1.7-64.7,2.8c-2,0.1-4,0.5-6.8,0.9v-27.6c28.3-3.2,56.5-9,85.2-2.3
	c20.6,4.8,34.9,17,40.4,38.2c5.6,21.8-0.2,39.6-20,58.8c18.6,12.9,28,30,27.2,53.3c-1.1,30.7-17.1,53.2-48.1,57.3
	c-23.3,3-47.4,1.9-70.9-0.1c-13.9-1.2-26.3-0.4-38.4,6c-2.1,1.1-4.6,1.6-8.6,2.9v-15.6c0-41.6,0.7-83.2-0.4-124.8
	c-0.3-13.7,3.6-20.8,17.1-22.7C422.6,151.6,425.7,150.3,430.8,148.8z"/>
<path class="st2" d="M124.5,101.4h33.9v206.8h-33.3v-89.7H37.1v89.8H3.5V101.5h32.7v85.7h88.3V101.4z"/>
<path class="st3" d="M335.4,101.4h32.1c0.6,1.3,1.5,2.4,1.5,3.6c-0.2,41.6,1.1,83.2-1,124.7c-2.6,48.4-37.1,80.5-84.1,81.9
	c-47.6,1.4-84.6-29-88.3-78.3c-3.3-43.3-0.7-87.1-0.7-131.6h32c0.2,3.6,0.7,7.2,0.7,10.8c0,33.7-1.2,67.4,0.4,101
	c0.6,14,4.4,29.2,11.4,41.2c12.9,23.1,42.2,31.4,65.3,18.5c7.3-4.1,13.4-10,17.7-17.1c7.6-12.4,11.8-28.6,12.6-43.3
	c1.8-32.8,0.5-65.7,0.5-98.5L335.4,101.4z"/>
<path class="st4" d="M434.6,68.9V48.1H545v20.7H434.6z"/>
</svg>
